<?xml version="1.0" standalone="no"?>
<!DOCTYPE svg PUBLIC "-//W3C//DTD SVG 20010904//EN"
 "http://www.w3.org/TR/2001/REC-SVG-20010904/DTD/svg10.dtd">
<svg version="1.0" xmlns="http://www.w3.org/2000/svg"
 width="400.000000pt" height="60.4000000pt" viewBox="0 0 2000.000000 302.000000"
 preserveAspectRatio="xMidYMid meet">

<g transform="translate(0.000000,302.000000) scale(0.100000,-0.100000)"
fill="#FFFFFF" stroke="none">
<path d="M4796 2464 c-263 -58 -434 -206 -517 -446 -15 -46 -32 -110 -37 -143
-6 -36 -8 -321 -4 -703 l5 -642 184 2 184 3 2 651 2 651 40 79 c31 60 52 87
90 116 77 58 131 73 265 73 106 0 120 -3 178 -29 79 -36 152 -113 183 -194 22
-55 23 -70 30 -532 4 -261 7 -550 8 -642 l1 -168 187 0 186 0 -6 663 c-7 747
-6 737 -88 905 -32 67 -58 102 -122 166 -91 92 -174 140 -297 177 -100 29
-369 37 -474 13z"/>
<path d="M2415 2429 c-328 -64 -574 -252 -681 -519 -59 -144 -68 -200 -68
-415 0 -215 9 -271 68 -415 79 -197 243 -360 448 -447 170 -71 214 -78 498
-78 232 0 262 2 335 22 247 68 446 207 554 388 174 289 174 771 0 1060 -81
135 -242 270 -400 335 -157 65 -202 72 -464 76 -132 1 -262 -2 -290 -7z m490
-374 c204 -52 342 -183 401 -381 25 -82 25 -276 0 -358 -59 -198 -197 -329
-401 -381 -82 -21 -368 -21 -450 0 -208 53 -358 199 -406 395 -18 71 -18 259
0 330 47 194 197 341 401 394 78 21 375 21 455 1z"/>
<path d="M6290 2255 l0 -185 740 0 740 0 0 185 0 185 -740 0 -740 0 0 -185z"/>
<path d="M12235 2429 c-328 -64 -574 -252 -681 -519 -59 -144 -68 -200 -68
-415 0 -215 9 -271 68 -415 79 -197 243 -360 448 -447 170 -71 214 -78 498
-78 232 0 262 2 335 22 189 52 346 142 457 262 78 85 122 157 164 269 106 286
78 677 -67 917 -81 135 -242 270 -400 335 -157 65 -202 72 -464 76 -132 1
-262 -2 -290 -7z m490 -374 c204 -52 342 -183 401 -381 25 -82 25 -276 0 -358
-59 -198 -197 -329 -401 -381 -82 -21 -368 -21 -450 0 -208 53 -358 199 -406
395 -8 30 -14 105 -14 165 0 126 14 192 59 285 60 126 200 233 356 274 78 21
375 21 455 1z"/>
<path d="M13980 1495 l0 -945 185 0 185 0 0 380 0 380 205 0 204 0 192 -380
191 -380 204 0 c112 0 204 2 204 5 0 3 -88 181 -196 396 -107 215 -194 392
-192 394 2 1 36 19 77 40 182 91 281 263 281 490 0 282 -152 475 -428 546 -70
18 -114 19 -594 19 l-518 0 0 -945z m1066 543 c71 -37 99 -84 99 -163 0 -78
-26 -121 -97 -161 l-53 -29 -322 -3 -323 -3 0 196 0 196 323 -3 322 -3 51 -27z"/>
<path d="M16110 1495 l0 -945 185 0 185 0 2 355 3 354 275 -354 275 -355 218
0 c172 0 217 3 210 13 -4 6 -156 203 -338 437 -182 234 -343 441 -357 460
l-27 36 364 469 c201 258 365 470 365 472 0 2 -98 3 -217 3 l-218 0 -275 -355
-275 -354 -3 354 -2 355 -185 0 -185 0 0 -945z"/>
<path d="M18272 2420 c-114 -30 -198 -77 -272 -150 -104 -104 -150 -223 -150
-395 0 -265 123 -442 370 -529 l85 -31 330 -5 330 -5 55 -27 c76 -38 105 -82
105 -163 0 -79 -32 -132 -102 -166 l-48 -24 -527 -3 -528 -3 0 -184 0 -185
538 0 c504 0 544 1 616 20 221 56 364 195 412 397 22 93 14 264 -16 350 -58
166 -171 270 -365 334 -66 21 -91 23 -400 28 -321 6 -331 7 -378 30 -58 28
-94 79 -103 144 -9 62 16 129 61 163 69 53 87 54 637 54 l508 0 0 185 0 185
-542 -1 c-502 0 -549 -2 -616 -19z"/>
<path d="M536 2354 c-14 -14 -16 -110 -16 -908 0 -680 3 -895 12 -904 9 -9 75
-12 233 -12 202 0 223 2 238 18 16 17 17 94 17 904 0 845 -1 886 -18 901 -16
15 -48 17 -235 17 -183 0 -218 -2 -231 -16z"/>
<path d="M8382 2358 c-7 -7 -12 -21 -12 -33 0 -37 529 -1758 546 -1777 16 -16
37 -18 254 -18 177 0 241 3 254 13 21 15 22 18 212 644 93 307 154 493 162
493 6 0 12 -2 12 -5 0 -9 320 -1069 332 -1098 6 -15 19 -32 29 -37 10 -6 121
-10 252 -10 215 0 235 1 251 19 17 19 546 1738 546 1776 0 43 -12 45 -250 45
-217 0 -228 -1 -246 -21 -11 -12 -85 -239 -185 -567 -91 -300 -171 -548 -177
-550 -6 -2 -20 25 -30 60 -11 35 -86 283 -168 553 -88 290 -156 497 -166 507
-16 16 -39 18 -200 18 -137 -1 -187 -4 -201 -14 -22 -17 -17 -1 -201 -609 -84
-279 -157 -511 -160 -514 -4 -4 -10 -2 -15 3 -4 5 -81 252 -171 549 -105 347
-170 548 -183 563 -20 22 -25 22 -247 22 -162 0 -229 -3 -238 -12z"/>
<path d="M6290 1495 l0 -185 740 0 740 0 0 185 0 185 -740 0 -740 0 0 -185z"/>
<path d="M6290 735 l0 -185 740 0 740 0 0 185 0 185 -740 0 -740 0 0 -185z"/>
</g>
</svg>
