<svg width="447" height="444" viewBox="0 0 447 444" fill="none" xmlns="http://www.w3.org/2000/svg">
<mask id="path-1-inside-1_3_244" fill="white">
<path fill-rule="evenodd" clip-rule="evenodd" d="M196.598 30.0354C221.432 31.0056 240.777 51.9239 239.807 76.7578C239.803 76.8532 239.799 76.9486 239.795 77.0439C230.141 75.2012 220.147 74.3318 209.923 74.5409C189.114 74.9664 169.441 79.8159 151.797 88.1665C150.359 83.4616 149.673 78.4387 149.876 73.2444C150.846 48.4106 171.764 29.0652 196.598 30.0354ZM125.72 104.154C121.565 94.3223 119.454 83.4441 119.898 72.0733C121.515 30.6835 156.379 -1.55871 197.769 0.0582553C239.159 1.67522 271.401 36.5391 269.784 77.9289C269.678 80.6563 269.427 83.3441 269.039 85.985C270.909 86.7862 272.758 87.6263 274.585 88.5041C287.173 62.4597 314.322 44.9708 345.073 46.1722C386.463 47.7892 418.705 82.653 417.088 124.043C415.659 160.617 388.27 190.049 353.357 195.286C353.552 196.637 353.728 197.995 353.884 199.358C388.333 191.187 424.795 208.417 439.671 241.954C456.468 279.817 439.389 324.127 401.526 340.923C368.914 355.39 331.52 344.727 311.042 317.297C310.093 318.201 309.13 319.093 308.156 319.971C312.738 325.346 316.633 331.465 319.643 338.251C336.439 376.114 319.361 420.425 281.498 437.221C243.635 454.017 199.325 436.939 182.529 399.076C175.738 383.767 174.484 367.405 177.903 352.233C176.498 351.881 175.102 351.508 173.714 351.114C166.736 368.761 153.098 383.786 134.382 392.089C96.5189 408.885 52.2088 391.807 35.4126 353.944C18.6164 316.081 35.6946 271.77 73.5578 254.974C74.4089 254.597 75.2633 254.236 76.1205 253.893C75.501 251.71 74.933 249.505 74.4178 247.279C73.6388 247.273 72.8572 247.254 72.0733 247.224C30.6835 245.607 -1.55871 210.743 0.0582553 169.353C1.67522 127.963 36.5391 95.721 77.9289 97.3379C92.7936 97.9187 106.479 102.788 117.839 110.707C120.384 108.431 123.012 106.245 125.72 104.154ZM97.4683 133.28C91.3497 129.749 84.3074 127.61 76.7578 127.315C51.9239 126.345 31.0056 145.69 30.0354 170.524C29.0971 194.542 47.1607 214.897 70.8138 217.087C70.4656 185.869 80.3821 156.866 97.4683 133.28ZM87.3714 281.704C86.8197 281.923 86.2701 282.154 85.7226 282.397C63.0047 292.475 52.7578 319.061 62.8355 341.779C72.9132 364.497 99.4993 374.744 122.217 364.666C133.505 359.659 141.714 350.576 145.881 339.918C121.071 326.734 100.627 306.433 87.3714 281.704ZM207.78 356.429C205.019 366.182 205.52 376.92 209.952 386.911C220.029 409.629 246.615 419.875 269.333 409.798C292.051 399.72 302.298 373.134 292.22 350.416C290.074 345.578 287.179 341.305 283.731 337.673C263.671 349.185 240.486 355.975 215.687 356.482C213.035 356.536 210.399 356.518 207.78 356.429ZM331.258 293.262C342.164 314.113 367.546 323.177 389.361 313.5C412.079 303.423 422.326 276.836 412.249 254.119C402.336 231.772 376.449 221.492 353.984 230.754C351.5 253.647 343.48 274.943 331.258 293.262ZM345.807 165.97C368.196 164.171 386.212 145.876 387.111 122.872C388.081 98.0378 368.736 77.1195 343.902 76.1493C324.331 75.3847 307.192 87.2376 300.331 104.451C320.66 120.264 336.56 141.477 345.807 165.97Z"/>
</mask>
<path d="M239.807 76.7578L219.822 75.977L219.822 75.9784L239.807 76.7578ZM196.598 30.0354L195.817 50.0201L196.598 30.0354ZM239.795 77.0439L236.045 96.6892L258.729 101.019L259.774 77.9492L239.795 77.0439ZM209.923 74.5409L209.514 54.5451L209.923 74.5409ZM151.797 88.1665L132.672 94.0157L139.439 116.143L160.353 106.244L151.797 88.1665ZM149.876 73.2444L169.86 74.0252V74.0252L149.876 73.2444ZM119.898 72.0733L139.883 72.8541V72.854L119.898 72.0733ZM125.72 104.154L137.946 119.982L150.14 110.563L144.143 96.3694L125.72 104.154ZM197.769 0.0582553L196.988 20.043L197.769 0.0582553ZM269.784 77.9289L289.769 78.7097V78.7096L269.784 77.9289ZM269.039 85.985L249.251 83.0803L247.016 98.3063L261.161 104.368L269.039 85.985ZM274.585 88.5041L265.925 106.532L283.91 115.171L292.592 97.2074L274.585 88.5041ZM345.073 46.1722L344.292 66.1569L345.073 46.1722ZM417.088 124.043L397.103 123.262V123.262L417.088 124.043ZM353.357 195.286L350.39 175.508L330.72 178.458L333.562 198.144L353.357 195.286ZM353.884 199.358L334.014 201.636L336.58 224.017L358.5 218.818L353.884 199.358ZM439.671 241.954L421.39 250.064V250.064L439.671 241.954ZM401.526 340.923L409.636 359.205L401.526 340.923ZM311.042 317.297L327.069 305.333L313.581 287.265L297.251 302.813L311.042 317.297ZM308.156 319.971L294.77 305.111L280.31 318.136L292.936 332.946L308.156 319.971ZM319.643 338.251L337.925 330.141L319.643 338.251ZM281.498 437.221L289.608 455.503L281.498 437.221ZM182.529 399.076L200.811 390.966L182.529 399.076ZM177.903 352.233L197.414 356.63L201.706 337.584L182.769 332.834L177.903 352.233ZM173.714 351.114L179.171 331.873L161.767 326.937L155.115 343.76L173.714 351.114ZM134.382 392.089L142.492 410.371H142.492L134.382 392.089ZM35.4126 353.944L53.6946 345.834L35.4126 353.944ZM73.5578 254.974L81.6677 273.256L81.6677 273.256L73.5578 254.974ZM76.1205 253.893L83.5591 272.458L100.278 265.759L95.3608 248.433L76.1205 253.893ZM74.4178 247.279L93.9027 242.769L90.3479 227.411L74.5847 227.28L74.4178 247.279ZM72.0733 247.224L71.2926 267.208H71.2926L72.0733 247.224ZM0.0582553 169.353L-19.9265 168.572L0.0582553 169.353ZM77.9289 97.3379L77.1481 117.323L77.9289 97.3379ZM117.839 110.707L106.401 127.114L119.379 136.161L131.171 125.615L117.839 110.707ZM97.4683 133.28L113.665 145.013L126.679 127.048L107.466 115.959L97.4683 133.28ZM76.7578 127.315L75.977 147.3L76.7578 127.315ZM30.0354 170.524L50.0201 171.305L30.0354 170.524ZM70.8138 217.087L68.97 237.002L91.06 239.047L90.8125 216.864L70.8138 217.087ZM85.7226 282.397L77.6131 264.115L77.6127 264.115L85.7226 282.397ZM87.3714 281.704L104.999 272.255L96.5663 256.524L79.9811 263.119L87.3714 281.704ZM62.8355 341.779L81.1175 333.669H81.1175L62.8355 341.779ZM122.217 364.666L130.327 382.948H130.327L122.217 364.666ZM145.881 339.918L164.508 347.2L170.992 330.613L155.265 322.256L145.881 339.918ZM207.78 356.429L208.46 336.44L192.803 335.908L188.536 350.981L207.78 356.429ZM209.952 386.911L191.67 395.021L209.952 386.911ZM269.333 409.798L277.443 428.08H277.443L269.333 409.798ZM292.22 350.416L310.502 342.306V342.306L292.22 350.416ZM283.731 337.673L298.236 323.903L287.413 312.502L273.777 320.326L283.731 337.673ZM215.687 356.482L215.279 336.486H215.279L215.687 356.482ZM389.361 313.5L397.471 331.782H397.471L389.361 313.5ZM331.258 293.262L314.621 282.162L308.041 292.025L313.536 302.531L331.258 293.262ZM412.249 254.119L430.53 246.009L412.249 254.119ZM353.984 230.754L346.361 212.263L335.382 216.79L334.101 228.596L353.984 230.754ZM387.111 122.872L367.126 122.091V122.091L387.111 122.872ZM345.807 165.97L327.096 173.034L332.41 187.111L347.409 185.906L345.807 165.97ZM343.902 76.1493L344.683 56.1646L343.902 76.1493ZM300.331 104.451L281.753 97.0462L276.188 111.009L288.052 120.237L300.331 104.451ZM259.792 77.5385C261.193 41.6673 233.25 11.452 197.379 10.0506L195.817 50.0201C209.614 50.5591 220.361 62.1804 219.822 75.977L259.792 77.5385ZM259.774 77.9492C259.781 77.8129 259.786 77.6755 259.792 77.5371L219.822 75.9784C219.82 76.0309 219.818 76.0843 219.815 76.1387L259.774 77.9492ZM210.332 94.5367C219.153 94.3563 227.754 95.1065 236.045 96.6892L243.545 57.3986C232.529 55.2959 221.141 54.3073 209.514 54.5451L210.332 94.5367ZM160.353 106.244C175.494 99.0779 192.395 94.9034 210.332 94.5367L209.514 54.5451C185.832 55.0293 163.388 60.5538 143.241 70.0891L160.353 106.244ZM129.891 72.4637C129.599 79.9309 130.586 87.194 132.672 94.0157L170.923 82.3174C170.131 79.7292 169.746 76.9464 169.86 74.0252L129.891 72.4637ZM197.379 10.0506C161.508 8.64926 131.292 36.5925 129.891 72.4637L169.86 74.0252C170.399 60.2286 182.021 49.4812 195.817 50.0201L197.379 10.0506ZM99.9137 71.2926C99.3525 85.6589 102.023 99.4573 107.297 111.938L144.143 96.3694C141.108 89.1872 139.556 81.2292 139.883 72.8541L99.9137 71.2926ZM198.55 -19.9265C146.123 -21.9747 101.962 18.8655 99.9137 71.2926L139.883 72.854C141.069 42.5015 166.636 18.8572 196.988 20.043L198.55 -19.9265ZM289.769 78.7096C291.817 26.2826 250.977 -17.8783 198.55 -19.9265L196.988 20.043C227.341 21.2288 250.985 46.7956 249.799 77.1481L289.769 78.7096ZM288.827 88.8897C289.318 85.5458 289.634 82.1491 289.769 78.7097L249.799 77.148C249.721 79.1635 249.536 81.1423 249.251 83.0803L288.827 88.8897ZM261.161 104.368C262.767 105.056 264.355 105.778 265.925 106.532L283.245 70.4763C281.16 69.4747 279.05 68.5162 276.917 67.6019L261.161 104.368ZM292.592 97.2074C301.843 78.0672 321.773 65.2772 344.292 66.1569L345.854 26.1874C306.871 24.6645 272.503 46.8522 256.578 79.8009L292.592 97.2074ZM344.292 66.1569C374.645 67.3427 398.289 92.9096 397.103 123.262L437.073 124.824C439.121 72.3965 398.281 28.2356 345.854 26.1874L344.292 66.1569ZM397.103 123.262C396.057 150.061 375.981 171.668 350.39 175.508L356.324 215.065C400.558 208.429 435.262 171.173 437.073 124.824L397.103 123.262ZM333.562 198.144C333.729 199.302 333.88 200.467 334.014 201.636L373.754 197.08C373.575 195.523 373.375 193.972 373.152 192.429L333.562 198.144ZM358.5 218.818C383.751 212.829 410.489 225.49 421.39 250.064L457.953 233.844C439.101 191.344 392.915 169.545 349.268 179.898L358.5 218.818ZM421.39 250.064C433.707 277.83 421.183 310.324 393.416 322.641L409.636 359.205C457.596 337.93 479.229 281.804 457.953 233.844L421.39 250.064ZM393.416 322.641C369.524 333.24 342.084 325.445 327.069 305.333L295.016 329.262C320.956 364.008 368.305 377.54 409.636 359.205L393.416 322.641ZM297.251 302.813C296.435 303.59 295.608 304.356 294.77 305.111L321.542 334.831C322.653 333.829 323.75 332.813 324.833 331.782L297.251 302.813ZM337.925 330.141C334.125 321.576 329.195 313.821 323.376 306.996L292.936 332.946C296.282 336.871 299.14 341.354 301.361 346.361L337.925 330.141ZM289.608 455.503C337.568 434.228 359.2 378.101 337.925 330.141L301.361 346.361C313.679 374.127 301.155 406.622 273.388 418.939L289.608 455.503ZM164.247 407.185C185.522 455.145 241.648 476.778 289.608 455.503L273.388 418.939C245.622 431.256 213.128 418.732 200.811 390.966L164.247 407.185ZM158.392 347.837C154.061 367.057 155.655 387.816 164.247 407.185L200.811 390.966C195.821 379.718 194.908 367.752 197.414 356.63L158.392 347.837ZM182.769 332.834C181.562 332.531 180.363 332.211 179.171 331.873L168.257 370.355C169.841 370.804 171.434 371.23 173.037 371.632L182.769 332.834ZM155.115 343.76C149.987 356.727 140.004 367.716 126.272 373.807L142.492 410.371C166.193 399.857 183.485 380.794 192.313 358.468L155.115 343.76ZM126.272 373.807C98.5058 386.124 66.0117 373.6 53.6946 345.834L17.1307 362.054C38.4058 410.014 94.532 431.646 142.492 410.371L126.272 373.807ZM53.6946 345.834C41.3774 318.068 53.9014 285.573 81.6677 273.256L65.4479 236.692C17.4879 257.967 -4.14447 314.094 17.1307 362.054L53.6946 345.834ZM81.6677 273.256C82.2966 272.977 82.9272 272.711 83.5591 272.458L68.682 235.328C67.5994 235.761 66.5211 236.216 65.4478 236.692L81.6677 273.256ZM95.3608 248.433C94.8303 246.563 94.3439 244.675 93.9027 242.769L54.933 251.789C55.5221 254.334 56.1717 256.856 56.8803 259.353L95.3608 248.433ZM71.2926 267.208C72.2811 267.247 73.2673 267.27 74.251 267.279L74.5847 227.28C74.0103 227.275 73.4334 227.261 72.854 227.239L71.2926 267.208ZM-19.9265 168.572C-21.9747 220.999 18.8655 265.16 71.2926 267.208L72.854 227.239C42.5015 226.053 18.8572 200.486 20.043 170.134L-19.9265 168.572ZM78.7096 77.3532C26.2826 75.305 -17.8783 116.145 -19.9265 168.572L20.043 170.134C21.2288 139.781 46.7956 116.137 77.1481 117.323L78.7096 77.3532ZM129.276 94.3003C114.873 84.2592 97.5083 78.0876 78.7096 77.3532L77.1481 117.323C88.079 117.75 98.0844 121.316 106.401 127.114L129.276 94.3003ZM131.171 125.615C133.359 123.659 135.618 121.78 137.946 119.982L113.494 88.3259C110.406 90.7106 107.409 93.2035 104.507 95.7988L131.171 125.615ZM107.466 115.959C98.6046 110.844 88.4083 107.755 77.5385 107.33L75.977 147.3C80.2064 147.465 84.0948 148.654 87.4702 150.602L107.466 115.959ZM77.5385 107.33C41.6674 105.929 11.452 133.872 10.0506 169.743L50.0201 171.305C50.5591 157.508 62.1804 146.761 75.977 147.3L77.5385 107.33ZM10.0506 169.743C8.69508 204.442 34.7873 233.837 68.97 237.002L72.6575 197.172C59.5341 195.957 49.4991 184.642 50.0201 171.305L10.0506 169.743ZM90.8125 216.864C90.5139 190.092 99.0026 165.254 113.665 145.013L81.2716 121.547C61.7617 148.479 50.4172 181.646 50.815 217.31L90.8125 216.864ZM93.8321 300.679C94.1419 300.542 94.4518 300.412 94.7616 300.289L79.9811 263.119C79.1877 263.435 78.3982 263.767 77.6131 264.115L93.8321 300.679ZM81.1175 333.669C75.5188 321.048 81.2115 306.278 93.8325 300.679L77.6127 264.115C44.798 278.672 29.9969 317.074 44.5536 349.889L81.1175 333.669ZM114.107 346.384C101.486 351.983 86.7162 346.29 81.1175 333.669L44.5536 349.889C59.1103 382.704 97.5124 397.505 130.327 382.948L114.107 346.384ZM127.253 332.635C124.928 338.585 120.384 343.6 114.107 346.384L130.327 382.948C146.626 375.718 158.5 362.568 164.508 347.2L127.253 332.635ZM155.265 322.256C133.933 310.921 116.369 293.467 104.999 272.255L69.7441 291.153C84.8853 319.4 108.209 342.548 136.496 357.579L155.265 322.256ZM188.536 350.981C184.55 365.061 185.275 380.606 191.67 395.021L228.234 378.801C225.764 373.235 225.487 367.304 227.024 361.877L188.536 350.981ZM191.67 395.021C206.226 427.835 244.628 442.636 277.443 428.08L261.223 391.516C248.602 397.115 233.832 391.422 228.234 378.801L191.67 395.021ZM277.443 428.08C310.258 413.523 325.059 375.121 310.502 342.306L273.938 358.526C279.537 371.147 273.844 385.917 261.223 391.516L277.443 428.08ZM310.502 342.306C307.416 335.35 303.235 329.169 298.236 323.903L269.227 351.443C271.123 353.441 272.731 355.805 273.938 358.526L310.502 342.306ZM273.777 320.326C256.557 330.208 236.645 336.049 215.279 336.486L216.096 376.478C244.327 375.901 270.785 368.162 293.686 355.02L273.777 320.326ZM215.279 336.486C212.99 336.533 210.716 336.517 208.46 336.44L207.1 376.417C210.082 376.519 213.081 376.539 216.096 376.478L215.279 336.486ZM381.252 295.218C369.139 300.591 355.03 295.56 348.98 283.992L313.536 302.531C329.298 332.667 365.953 345.764 397.471 331.782L381.252 295.218ZM393.967 262.228C399.565 274.85 393.873 289.62 381.252 295.218L397.471 331.782C430.286 317.226 445.087 278.823 430.53 246.009L393.967 262.228ZM361.607 249.244C374.078 244.103 388.461 249.817 393.967 262.228L430.53 246.009C416.21 213.727 378.821 198.881 346.361 212.263L361.607 249.244ZM334.101 228.596C331.974 248.198 325.11 266.441 314.621 282.162L347.895 304.361C361.85 283.445 371.026 259.095 373.867 232.911L334.101 228.596ZM367.126 122.091C366.628 134.857 356.622 145.037 344.205 146.035L347.409 185.906C379.77 183.305 405.797 156.896 407.096 123.652L367.126 122.091ZM343.121 96.1341C356.918 96.6731 367.665 108.294 367.126 122.091L407.096 123.652C408.497 87.7813 380.554 57.5659 344.683 56.1646L343.121 96.1341ZM318.91 111.855C322.732 102.266 332.28 95.7105 343.121 96.1341L344.683 56.1646C316.382 55.059 291.651 72.2095 281.753 97.0462L318.91 111.855ZM288.052 120.237C305.539 133.84 319.178 152.06 327.096 173.034L364.518 158.906C353.942 130.894 335.781 106.688 312.611 88.6644L288.052 120.237Z" fill="white" mask="url(#path-1-inside-1_3_244)"/>
<mask id="path-3-inside-2_3_244" fill="white">
<path fill-rule="evenodd" clip-rule="evenodd" d="M196.598 30.0354C221.432 31.0056 240.777 51.9239 239.807 76.7578C239.803 76.8532 239.799 76.9486 239.795 77.0439C230.141 75.2012 220.147 74.3318 209.923 74.5409C189.114 74.9664 169.441 79.8159 151.797 88.1665C150.359 83.4616 149.673 78.4387 149.876 73.2444C150.846 48.4106 171.764 29.0652 196.598 30.0354ZM125.72 104.154C121.565 94.3223 119.454 83.4441 119.898 72.0733C121.515 30.6835 156.379 -1.55871 197.769 0.0582553C239.159 1.67522 271.401 36.5391 269.784 77.9289C269.678 80.6563 269.427 83.3441 269.039 85.985C270.909 86.7862 272.758 87.6263 274.585 88.5041C287.173 62.4597 314.322 44.9708 345.073 46.1722C386.463 47.7892 418.705 82.653 417.088 124.043C415.659 160.617 388.27 190.049 353.357 195.286C353.552 196.637 353.728 197.995 353.884 199.358C388.333 191.187 424.795 208.417 439.671 241.954C456.468 279.817 439.389 324.127 401.526 340.923C368.914 355.39 331.52 344.727 311.042 317.297C310.093 318.201 309.13 319.093 308.156 319.971C312.738 325.346 316.633 331.465 319.643 338.251C336.439 376.114 319.361 420.425 281.498 437.221C243.635 454.017 199.325 436.939 182.529 399.076C175.738 383.767 174.484 367.405 177.903 352.233C176.498 351.881 175.102 351.508 173.714 351.114C166.736 368.761 153.098 383.786 134.382 392.089C96.5189 408.885 52.2088 391.807 35.4126 353.944C18.6164 316.081 35.6946 271.77 73.5578 254.974C74.4089 254.597 75.2633 254.236 76.1205 253.893C75.501 251.71 74.933 249.505 74.4178 247.279C73.6388 247.273 72.8572 247.254 72.0733 247.224C30.6835 245.607 -1.55871 210.743 0.0582553 169.353C1.67522 127.963 36.5391 95.721 77.9289 97.3379C92.7936 97.9187 106.479 102.788 117.839 110.707C120.384 108.431 123.012 106.245 125.72 104.154ZM97.4683 133.28C91.3497 129.749 84.3074 127.61 76.7578 127.315C51.9239 126.345 31.0056 145.69 30.0354 170.524C29.0971 194.542 47.1607 214.897 70.8138 217.087C70.4656 185.869 80.3821 156.866 97.4683 133.28ZM87.3714 281.704C86.8197 281.923 86.2701 282.154 85.7226 282.397C63.0047 292.475 52.7578 319.061 62.8355 341.779C72.9132 364.497 99.4993 374.744 122.217 364.666C133.505 359.659 141.714 350.576 145.881 339.918C121.071 326.734 100.627 306.433 87.3714 281.704ZM207.78 356.429C205.019 366.182 205.52 376.92 209.952 386.911C220.029 409.629 246.615 419.875 269.333 409.798C292.051 399.72 302.298 373.134 292.22 350.416C290.074 345.578 287.179 341.305 283.731 337.673C263.671 349.185 240.486 355.975 215.687 356.482C213.035 356.536 210.399 356.518 207.78 356.429ZM331.258 293.262C342.164 314.113 367.546 323.177 389.361 313.5C412.079 303.423 422.326 276.836 412.249 254.119C402.336 231.772 376.449 221.492 353.984 230.754C351.5 253.647 343.48 274.943 331.258 293.262ZM345.807 165.97C368.196 164.171 386.212 145.876 387.111 122.872C388.081 98.0378 368.736 77.1195 343.902 76.1493C324.331 75.3847 307.192 87.2376 300.331 104.451C320.66 120.264 336.56 141.477 345.807 165.97Z"/>
</mask>
<path d="M239.807 76.7578L219.822 75.977L219.822 75.9784L239.807 76.7578ZM196.598 30.0354L195.817 50.0201L196.598 30.0354ZM239.795 77.0439L236.045 96.6892L258.729 101.019L259.774 77.9492L239.795 77.0439ZM209.923 74.5409L209.514 54.5451L209.923 74.5409ZM151.797 88.1665L132.672 94.0157L139.439 116.143L160.353 106.244L151.797 88.1665ZM149.876 73.2444L169.86 74.0252V74.0252L149.876 73.2444ZM119.898 72.0733L139.883 72.8541V72.854L119.898 72.0733ZM125.72 104.154L137.946 119.982L150.14 110.563L144.143 96.3694L125.72 104.154ZM197.769 0.0582553L196.988 20.043L197.769 0.0582553ZM269.784 77.9289L289.769 78.7097V78.7096L269.784 77.9289ZM269.039 85.985L249.251 83.0803L247.016 98.3063L261.161 104.368L269.039 85.985ZM274.585 88.5041L265.925 106.532L283.91 115.171L292.592 97.2074L274.585 88.5041ZM345.073 46.1722L344.292 66.1569L345.073 46.1722ZM417.088 124.043L397.103 123.262V123.262L417.088 124.043ZM353.357 195.286L350.39 175.508L330.72 178.458L333.562 198.144L353.357 195.286ZM353.884 199.358L334.014 201.636L336.58 224.017L358.5 218.818L353.884 199.358ZM439.671 241.954L421.39 250.064V250.064L439.671 241.954ZM401.526 340.923L409.636 359.205L401.526 340.923ZM311.042 317.297L327.069 305.333L313.581 287.265L297.251 302.813L311.042 317.297ZM308.156 319.971L294.77 305.111L280.31 318.136L292.936 332.946L308.156 319.971ZM319.643 338.251L337.925 330.141L319.643 338.251ZM281.498 437.221L289.608 455.503L281.498 437.221ZM182.529 399.076L200.811 390.966L182.529 399.076ZM177.903 352.233L197.414 356.63L201.706 337.584L182.769 332.834L177.903 352.233ZM173.714 351.114L179.171 331.873L161.767 326.937L155.115 343.76L173.714 351.114ZM134.382 392.089L142.492 410.371H142.492L134.382 392.089ZM35.4126 353.944L53.6946 345.834L35.4126 353.944ZM73.5578 254.974L81.6677 273.256L81.6677 273.256L73.5578 254.974ZM76.1205 253.893L83.5591 272.458L100.278 265.759L95.3608 248.433L76.1205 253.893ZM74.4178 247.279L93.9027 242.769L90.3479 227.411L74.5847 227.28L74.4178 247.279ZM72.0733 247.224L71.2926 267.208H71.2926L72.0733 247.224ZM0.0582553 169.353L-19.9265 168.572L0.0582553 169.353ZM77.9289 97.3379L77.1481 117.323L77.9289 97.3379ZM117.839 110.707L106.401 127.114L119.379 136.161L131.171 125.615L117.839 110.707ZM97.4683 133.28L113.665 145.013L126.679 127.048L107.466 115.959L97.4683 133.28ZM76.7578 127.315L75.977 147.3L76.7578 127.315ZM30.0354 170.524L50.0201 171.305L30.0354 170.524ZM70.8138 217.087L68.97 237.002L91.06 239.047L90.8125 216.864L70.8138 217.087ZM85.7226 282.397L77.6131 264.115L77.6127 264.115L85.7226 282.397ZM87.3714 281.704L104.999 272.255L96.5663 256.524L79.9811 263.119L87.3714 281.704ZM62.8355 341.779L81.1175 333.669H81.1175L62.8355 341.779ZM122.217 364.666L130.327 382.948H130.327L122.217 364.666ZM145.881 339.918L164.508 347.2L170.992 330.613L155.265 322.256L145.881 339.918ZM207.78 356.429L208.46 336.44L192.803 335.908L188.536 350.981L207.78 356.429ZM209.952 386.911L191.67 395.021L209.952 386.911ZM269.333 409.798L277.443 428.08H277.443L269.333 409.798ZM292.22 350.416L310.502 342.306V342.306L292.22 350.416ZM283.731 337.673L298.236 323.903L287.413 312.502L273.777 320.326L283.731 337.673ZM215.687 356.482L215.279 336.486H215.279L215.687 356.482ZM389.361 313.5L397.471 331.782H397.471L389.361 313.5ZM331.258 293.262L314.621 282.162L308.041 292.025L313.536 302.531L331.258 293.262ZM412.249 254.119L430.53 246.009L412.249 254.119ZM353.984 230.754L346.361 212.263L335.382 216.79L334.101 228.596L353.984 230.754ZM387.111 122.872L367.126 122.091V122.091L387.111 122.872ZM345.807 165.97L327.096 173.034L332.41 187.111L347.409 185.906L345.807 165.97ZM343.902 76.1493L344.683 56.1646L343.902 76.1493ZM300.331 104.451L281.753 97.0462L276.188 111.009L288.052 120.237L300.331 104.451ZM259.792 77.5385C261.193 41.6673 233.25 11.452 197.379 10.0506L195.817 50.0201C209.614 50.5591 220.361 62.1804 219.822 75.977L259.792 77.5385ZM259.774 77.9492C259.781 77.8129 259.786 77.6755 259.792 77.5371L219.822 75.9784C219.82 76.0309 219.818 76.0843 219.815 76.1387L259.774 77.9492ZM210.332 94.5367C219.153 94.3563 227.754 95.1065 236.045 96.6892L243.545 57.3986C232.529 55.2959 221.141 54.3073 209.514 54.5451L210.332 94.5367ZM160.353 106.244C175.494 99.0779 192.395 94.9034 210.332 94.5367L209.514 54.5451C185.832 55.0293 163.388 60.5538 143.241 70.0891L160.353 106.244ZM129.891 72.4637C129.599 79.9309 130.586 87.194 132.672 94.0157L170.923 82.3174C170.131 79.7292 169.746 76.9464 169.86 74.0252L129.891 72.4637ZM197.379 10.0506C161.508 8.64926 131.292 36.5925 129.891 72.4637L169.86 74.0252C170.399 60.2286 182.021 49.4812 195.817 50.0201L197.379 10.0506ZM99.9137 71.2926C99.3525 85.6589 102.023 99.4573 107.297 111.938L144.143 96.3694C141.108 89.1872 139.556 81.2292 139.883 72.8541L99.9137 71.2926ZM198.55 -19.9265C146.123 -21.9747 101.962 18.8655 99.9137 71.2926L139.883 72.854C141.069 42.5015 166.636 18.8572 196.988 20.043L198.55 -19.9265ZM289.769 78.7096C291.817 26.2826 250.977 -17.8783 198.55 -19.9265L196.988 20.043C227.341 21.2288 250.985 46.7956 249.799 77.1481L289.769 78.7096ZM288.827 88.8897C289.318 85.5458 289.634 82.1491 289.769 78.7097L249.799 77.148C249.721 79.1635 249.536 81.1423 249.251 83.0803L288.827 88.8897ZM261.161 104.368C262.767 105.056 264.355 105.778 265.925 106.532L283.245 70.4763C281.16 69.4747 279.05 68.5162 276.917 67.6019L261.161 104.368ZM292.592 97.2074C301.843 78.0672 321.773 65.2772 344.292 66.1569L345.854 26.1874C306.871 24.6645 272.503 46.8522 256.578 79.8009L292.592 97.2074ZM344.292 66.1569C374.645 67.3427 398.289 92.9096 397.103 123.262L437.073 124.824C439.121 72.3965 398.281 28.2356 345.854 26.1874L344.292 66.1569ZM397.103 123.262C396.057 150.061 375.981 171.668 350.39 175.508L356.324 215.065C400.558 208.429 435.262 171.173 437.073 124.824L397.103 123.262ZM333.562 198.144C333.729 199.302 333.88 200.467 334.014 201.636L373.754 197.08C373.575 195.523 373.375 193.972 373.152 192.429L333.562 198.144ZM358.5 218.818C383.751 212.829 410.489 225.49 421.39 250.064L457.953 233.844C439.101 191.344 392.915 169.545 349.268 179.898L358.5 218.818ZM421.39 250.064C433.707 277.83 421.183 310.324 393.416 322.641L409.636 359.205C457.596 337.93 479.229 281.804 457.953 233.844L421.39 250.064ZM393.416 322.641C369.524 333.24 342.084 325.445 327.069 305.333L295.016 329.262C320.956 364.008 368.305 377.54 409.636 359.205L393.416 322.641ZM297.251 302.813C296.435 303.59 295.608 304.356 294.77 305.111L321.542 334.831C322.653 333.829 323.75 332.813 324.833 331.782L297.251 302.813ZM337.925 330.141C334.125 321.576 329.195 313.821 323.376 306.996L292.936 332.946C296.282 336.871 299.14 341.354 301.361 346.361L337.925 330.141ZM289.608 455.503C337.568 434.228 359.2 378.101 337.925 330.141L301.361 346.361C313.679 374.127 301.155 406.622 273.388 418.939L289.608 455.503ZM164.247 407.185C185.522 455.145 241.648 476.778 289.608 455.503L273.388 418.939C245.622 431.256 213.128 418.732 200.811 390.966L164.247 407.185ZM158.392 347.837C154.061 367.057 155.655 387.816 164.247 407.185L200.811 390.966C195.821 379.718 194.908 367.752 197.414 356.63L158.392 347.837ZM182.769 332.834C181.562 332.531 180.363 332.211 179.171 331.873L168.257 370.355C169.841 370.804 171.434 371.23 173.037 371.632L182.769 332.834ZM155.115 343.76C149.987 356.727 140.004 367.716 126.272 373.807L142.492 410.371C166.193 399.857 183.485 380.794 192.313 358.468L155.115 343.76ZM126.272 373.807C98.5058 386.124 66.0117 373.6 53.6946 345.834L17.1307 362.054C38.4058 410.014 94.532 431.646 142.492 410.371L126.272 373.807ZM53.6946 345.834C41.3774 318.068 53.9014 285.573 81.6677 273.256L65.4479 236.692C17.4879 257.967 -4.14447 314.094 17.1307 362.054L53.6946 345.834ZM81.6677 273.256C82.2966 272.977 82.9272 272.711 83.5591 272.458L68.682 235.328C67.5994 235.761 66.5211 236.216 65.4478 236.692L81.6677 273.256ZM95.3608 248.433C94.8303 246.563 94.3439 244.675 93.9027 242.769L54.933 251.789C55.5221 254.334 56.1717 256.856 56.8803 259.353L95.3608 248.433ZM71.2926 267.208C72.2811 267.247 73.2673 267.27 74.251 267.279L74.5847 227.28C74.0103 227.275 73.4334 227.261 72.854 227.239L71.2926 267.208ZM-19.9265 168.572C-21.9747 220.999 18.8655 265.16 71.2926 267.208L72.854 227.239C42.5015 226.053 18.8572 200.486 20.043 170.134L-19.9265 168.572ZM78.7096 77.3532C26.2826 75.305 -17.8783 116.145 -19.9265 168.572L20.043 170.134C21.2288 139.781 46.7956 116.137 77.1481 117.323L78.7096 77.3532ZM129.276 94.3003C114.873 84.2592 97.5083 78.0876 78.7096 77.3532L77.1481 117.323C88.079 117.75 98.0844 121.316 106.401 127.114L129.276 94.3003ZM131.171 125.615C133.359 123.659 135.618 121.78 137.946 119.982L113.494 88.3259C110.406 90.7106 107.409 93.2035 104.507 95.7988L131.171 125.615ZM107.466 115.959C98.6046 110.844 88.4083 107.755 77.5385 107.33L75.977 147.3C80.2064 147.465 84.0948 148.654 87.4702 150.602L107.466 115.959ZM77.5385 107.33C41.6674 105.929 11.452 133.872 10.0506 169.743L50.0201 171.305C50.5591 157.508 62.1804 146.761 75.977 147.3L77.5385 107.33ZM10.0506 169.743C8.69508 204.442 34.7873 233.837 68.97 237.002L72.6575 197.172C59.5341 195.957 49.4991 184.642 50.0201 171.305L10.0506 169.743ZM90.8125 216.864C90.5139 190.092 99.0026 165.254 113.665 145.013L81.2716 121.547C61.7617 148.479 50.4172 181.646 50.815 217.31L90.8125 216.864ZM93.8321 300.679C94.1419 300.542 94.4518 300.412 94.7616 300.289L79.9811 263.119C79.1877 263.435 78.3982 263.767 77.6131 264.115L93.8321 300.679ZM81.1175 333.669C75.5188 321.048 81.2115 306.278 93.8325 300.679L77.6127 264.115C44.798 278.672 29.9969 317.074 44.5536 349.889L81.1175 333.669ZM114.107 346.384C101.486 351.983 86.7162 346.29 81.1175 333.669L44.5536 349.889C59.1103 382.704 97.5124 397.505 130.327 382.948L114.107 346.384ZM127.253 332.635C124.928 338.585 120.384 343.6 114.107 346.384L130.327 382.948C146.626 375.718 158.5 362.568 164.508 347.2L127.253 332.635ZM155.265 322.256C133.933 310.921 116.369 293.467 104.999 272.255L69.7441 291.153C84.8853 319.4 108.209 342.548 136.496 357.579L155.265 322.256ZM188.536 350.981C184.55 365.061 185.275 380.606 191.67 395.021L228.234 378.801C225.764 373.235 225.487 367.304 227.024 361.877L188.536 350.981ZM191.67 395.021C206.226 427.835 244.628 442.636 277.443 428.08L261.223 391.516C248.602 397.115 233.832 391.422 228.234 378.801L191.67 395.021ZM277.443 428.08C310.258 413.523 325.059 375.121 310.502 342.306L273.938 358.526C279.537 371.147 273.844 385.917 261.223 391.516L277.443 428.08ZM310.502 342.306C307.416 335.35 303.235 329.169 298.236 323.903L269.227 351.443C271.123 353.441 272.731 355.805 273.938 358.526L310.502 342.306ZM273.777 320.326C256.557 330.208 236.645 336.049 215.279 336.486L216.096 376.478C244.327 375.901 270.785 368.162 293.686 355.02L273.777 320.326ZM215.279 336.486C212.99 336.533 210.716 336.517 208.46 336.44L207.1 376.417C210.082 376.519 213.081 376.539 216.096 376.478L215.279 336.486ZM381.252 295.218C369.139 300.591 355.03 295.56 348.98 283.992L313.536 302.531C329.298 332.667 365.953 345.764 397.471 331.782L381.252 295.218ZM393.967 262.228C399.565 274.85 393.873 289.62 381.252 295.218L397.471 331.782C430.286 317.226 445.087 278.823 430.53 246.009L393.967 262.228ZM361.607 249.244C374.078 244.103 388.461 249.817 393.967 262.228L430.53 246.009C416.21 213.727 378.821 198.881 346.361 212.263L361.607 249.244ZM334.101 228.596C331.974 248.198 325.11 266.441 314.621 282.162L347.895 304.361C361.85 283.445 371.026 259.095 373.867 232.911L334.101 228.596ZM367.126 122.091C366.628 134.857 356.622 145.037 344.205 146.035L347.409 185.906C379.77 183.305 405.797 156.896 407.096 123.652L367.126 122.091ZM343.121 96.1341C356.918 96.6731 367.665 108.294 367.126 122.091L407.096 123.652C408.497 87.7813 380.554 57.5659 344.683 56.1646L343.121 96.1341ZM318.91 111.855C322.732 102.266 332.28 95.7105 343.121 96.1341L344.683 56.1646C316.382 55.059 291.651 72.2095 281.753 97.0462L318.91 111.855ZM288.052 120.237C305.539 133.84 319.178 152.06 327.096 173.034L364.518 158.906C353.942 130.894 335.781 106.688 312.611 88.6644L288.052 120.237Z" fill="white" mask="url(#path-3-inside-2_3_244)"/>
<path d="M180.595 175.122L216.161 197.301L216.473 197.496L216.746 197.245L245.998 170.308L238.772 211.021L238.711 211.363L239 211.544L274.629 233.762L234.598 236.665L234.215 236.692L234.146 237.081L226.94 277.676L209.38 238.819L209.238 238.504L208.9 238.528L168.753 241.44L198.005 214.503L198.278 214.252L198.124 213.911L180.595 175.122Z" fill="white" stroke="white"/>
<path d="M181.662 123.526L196.991 122.39L197.355 122.363L197.433 122.004L200.636 107.343L206.945 121.317L207.092 121.641L207.442 121.615L222.808 120.477L211.356 130.215L211.072 130.457L211.228 130.803L217.512 144.721L204.124 136.806L203.819 136.625L203.552 136.852L192.054 146.629L195.257 131.968L195.335 131.61L195.018 131.422L181.662 123.526Z" fill="white" stroke="white"/>
<path d="M108.012 193.063L123.035 189.78L123.392 189.702L123.421 189.336L124.606 174.358L132.742 187.315L132.931 187.617L133.276 187.541L148.332 184.251L138.314 195.514L138.066 195.793L138.266 196.112L146.373 209.022L132.048 203.063L131.72 202.926L131.486 203.189L121.431 214.494L122.616 199.516L122.644 199.151L122.305 199.009L108.012 193.063Z" fill="white" stroke="white"/>
</svg>
