<svg width="3496" height="513" viewBox="0 0 3496 513" fill="none" xmlns="http://www.w3.org/2000/svg">
<mask id="path-1-inside-1_3_210" fill="white">
<path fill-rule="evenodd" clip-rule="evenodd" d="M196.598 65.0354C221.432 66.0056 240.777 86.9239 239.807 111.758C239.803 111.853 239.799 111.949 239.795 112.044C230.141 110.201 220.147 109.332 209.923 109.541C189.114 109.966 169.441 114.816 151.797 123.167C150.359 118.462 149.673 113.439 149.876 108.244C150.846 83.4106 171.764 64.0652 196.598 65.0354ZM125.72 139.154C121.565 129.322 119.454 118.444 119.898 107.073C121.515 65.6835 156.379 33.4413 197.769 35.0583C239.159 36.6752 271.401 71.5391 269.784 112.929C269.678 115.656 269.427 118.344 269.039 120.985C270.909 121.786 272.758 122.626 274.585 123.504C287.173 97.4597 314.322 79.9708 345.073 81.1722C386.463 82.7892 418.705 117.653 417.088 159.043C415.659 195.617 388.27 225.049 353.357 230.286C353.552 231.637 353.728 232.995 353.884 234.358C388.333 226.187 424.795 243.417 439.671 276.954C456.468 314.817 439.389 359.127 401.526 375.923C368.914 390.39 331.52 379.727 311.042 352.297C310.093 353.201 309.13 354.093 308.156 354.971C312.738 360.346 316.633 366.465 319.643 373.251C336.439 411.114 319.361 455.425 281.498 472.221C243.635 489.017 199.325 471.939 182.529 434.076C175.738 418.767 174.484 402.405 177.903 387.233C176.498 386.881 175.102 386.508 173.714 386.114C166.736 403.761 153.098 418.786 134.382 427.089C96.5189 443.885 52.2088 426.807 35.4126 388.944C18.6164 351.081 35.6946 306.77 73.5578 289.974C74.4089 289.597 75.2633 289.236 76.1205 288.893C75.501 286.71 74.933 284.505 74.4178 282.279C73.6388 282.273 72.8572 282.254 72.0733 282.224C30.6835 280.607 -1.55871 245.743 0.0582553 204.353C1.67522 162.963 36.5391 130.721 77.9289 132.338C92.7936 132.919 106.479 137.788 117.839 145.707C120.384 143.431 123.012 141.245 125.72 139.154ZM97.4683 168.28C91.3497 164.749 84.3074 162.61 76.7578 162.315C51.9239 161.345 31.0056 180.69 30.0354 205.524C29.0971 229.542 47.1607 249.897 70.8138 252.087C70.4656 220.869 80.3821 191.866 97.4683 168.28ZM87.3714 316.704C86.8197 316.923 86.27 317.154 85.7226 317.397C63.0047 327.475 52.7578 354.061 62.8355 376.779C72.9132 399.497 99.4993 409.744 122.217 399.666C133.505 394.659 141.714 385.576 145.881 374.918C121.071 361.734 100.627 341.433 87.3714 316.704ZM207.78 391.429C205.019 401.182 205.52 411.92 209.952 421.911C220.029 444.629 246.615 454.875 269.333 444.798C292.051 434.72 302.298 408.134 292.22 385.416C290.074 380.578 287.179 376.305 283.731 372.673C263.671 384.185 240.486 390.975 215.687 391.482C213.035 391.536 210.399 391.518 207.78 391.429ZM331.258 328.262C342.164 349.113 367.546 358.177 389.361 348.5C412.079 338.423 422.326 311.836 412.249 289.119C402.336 266.772 376.449 256.492 353.984 265.754C351.5 288.647 343.48 309.943 331.258 328.262ZM345.807 200.97C368.196 199.171 386.212 180.876 387.111 157.872C388.081 133.038 368.736 112.12 343.902 111.149C324.331 110.385 307.192 122.238 300.331 139.451C320.66 155.264 336.56 176.477 345.807 200.97Z"/>
</mask>
<path d="M239.807 111.758L219.822 110.977L219.822 110.978L239.807 111.758ZM196.598 65.0354L195.817 85.0201L195.817 85.0201L196.598 65.0354ZM239.795 112.044L236.045 131.689L258.729 136.019L259.774 112.949L239.795 112.044ZM209.923 109.541L209.514 89.5451L209.923 109.541ZM151.797 123.167L132.672 129.016L139.439 151.143L160.353 141.244L151.797 123.167ZM149.876 108.244L169.86 109.025L169.86 109.025L149.876 108.244ZM119.898 107.073L139.883 107.854L139.883 107.854L119.898 107.073ZM125.72 139.154L137.946 154.982L150.14 145.563L144.143 131.369L125.72 139.154ZM197.769 35.0583L196.988 55.043L197.769 35.0583ZM269.784 112.929L289.769 113.71L289.769 113.71L269.784 112.929ZM269.039 120.985L249.251 118.08L247.016 133.306L261.161 139.368L269.039 120.985ZM274.585 123.504L265.925 141.532L283.91 150.171L292.592 132.207L274.585 123.504ZM345.073 81.1722L344.292 101.157L345.073 81.1722ZM417.088 159.043L397.103 158.262L397.103 158.262L417.088 159.043ZM353.357 230.286L350.39 210.508L330.72 213.458L333.562 233.144L353.357 230.286ZM353.884 234.358L334.014 236.636L336.58 259.017L358.5 253.818L353.884 234.358ZM439.671 276.954L421.39 285.064L421.39 285.064L439.671 276.954ZM401.526 375.923L409.636 394.205L409.636 394.205L401.526 375.923ZM311.042 352.297L327.069 340.333L313.581 322.265L297.251 337.813L311.042 352.297ZM308.156 354.971L294.77 340.111L280.31 353.136L292.936 367.946L308.156 354.971ZM319.643 373.251L337.925 365.141L337.925 365.141L319.643 373.251ZM281.498 472.221L289.608 490.503L289.608 490.503L281.498 472.221ZM182.529 434.076L200.811 425.966L200.811 425.966L182.529 434.076ZM177.903 387.233L197.414 391.63L201.706 372.584L182.769 367.834L177.903 387.233ZM173.714 386.114L179.171 366.873L161.767 361.937L155.115 378.76L173.714 386.114ZM134.382 427.089L142.492 445.371L142.492 445.371L134.382 427.089ZM35.4126 388.944L53.6946 380.834L53.6946 380.834L35.4126 388.944ZM73.5578 289.974L81.6677 308.256L81.6677 308.256L73.5578 289.974ZM76.1205 288.893L83.5591 307.458L100.278 300.759L95.3608 283.433L76.1205 288.893ZM74.4178 282.279L93.9027 277.769L90.3479 262.411L74.5847 262.28L74.4178 282.279ZM72.0733 282.224L71.2926 302.208L71.2926 302.208L72.0733 282.224ZM0.0582553 204.353L-19.9265 203.572L0.0582553 204.353ZM77.9289 132.338L77.1481 152.323L77.9289 132.338ZM117.839 145.707L106.401 162.114L119.379 171.161L131.171 160.615L117.839 145.707ZM97.4683 168.28L113.665 180.013L126.679 162.048L107.466 150.959L97.4683 168.28ZM76.7578 162.315L75.977 182.3L75.977 182.3L76.7578 162.315ZM30.0354 205.524L50.0201 206.305L50.0201 206.305L30.0354 205.524ZM70.8138 252.087L68.97 272.002L91.06 274.047L90.8125 251.864L70.8138 252.087ZM85.7226 317.397L77.6131 299.115L77.6127 299.115L85.7226 317.397ZM87.3714 316.704L104.999 307.255L96.5663 291.524L79.9811 298.119L87.3714 316.704ZM62.8355 376.779L81.1175 368.669L81.1175 368.669L62.8355 376.779ZM122.217 399.666L130.327 417.948L130.327 417.948L122.217 399.666ZM145.881 374.918L164.508 382.2L170.992 365.613L155.265 357.256L145.881 374.918ZM207.78 391.429L208.46 371.44L192.803 370.908L188.536 385.981L207.78 391.429ZM209.952 421.911L191.67 430.021L191.67 430.021L209.952 421.911ZM269.333 444.798L277.443 463.08L277.443 463.08L269.333 444.798ZM292.22 385.416L310.502 377.306L310.502 377.306L292.22 385.416ZM283.731 372.673L298.236 358.903L287.413 347.502L273.777 355.326L283.731 372.673ZM215.687 391.482L215.279 371.486L215.279 371.486L215.687 391.482ZM389.361 348.5L397.471 366.782L397.471 366.782L389.361 348.5ZM331.258 328.262L314.621 317.162L308.041 327.025L313.536 337.531L331.258 328.262ZM412.249 289.119L430.53 281.009L430.53 281.009L412.249 289.119ZM353.984 265.754L346.361 247.263L335.382 251.79L334.101 263.596L353.984 265.754ZM387.111 157.872L367.126 157.091L367.126 157.091L387.111 157.872ZM345.807 200.97L327.096 208.034L332.41 222.111L347.409 220.906L345.807 200.97ZM343.902 111.149L344.683 91.1646L344.683 91.1646L343.902 111.149ZM300.331 139.451L281.753 132.046L276.188 146.009L288.052 155.237L300.331 139.451ZM259.792 112.538C261.193 76.6673 233.25 46.452 197.379 45.0506L195.817 85.0201C209.614 85.5591 220.361 97.1804 219.822 110.977L259.792 112.538ZM259.774 112.949C259.781 112.813 259.786 112.676 259.792 112.537L219.822 110.978C219.82 111.031 219.818 111.084 219.815 111.139L259.774 112.949ZM210.332 129.537C219.153 129.356 227.754 130.107 236.045 131.689L243.545 92.3986C232.529 90.2959 221.141 89.3073 209.514 89.5451L210.332 129.537ZM160.353 141.244C175.494 134.078 192.395 129.903 210.332 129.537L209.514 89.5451C185.832 90.0293 163.388 95.5538 143.241 105.089L160.353 141.244ZM129.891 107.464C129.599 114.931 130.586 122.194 132.672 129.016L170.923 117.317C170.131 114.729 169.746 111.946 169.86 109.025L129.891 107.464ZM197.379 45.0506C161.508 43.6493 131.292 71.5925 129.891 107.464L169.86 109.025C170.399 95.2286 182.021 84.4812 195.817 85.0201L197.379 45.0506ZM99.9137 106.293C99.3525 120.659 102.023 134.457 107.297 146.938L144.143 131.369C141.108 124.187 139.556 116.229 139.883 107.854L99.9137 106.293ZM198.55 15.0735C146.123 13.0253 101.962 53.8655 99.9137 106.293L139.883 107.854C141.069 77.5015 166.636 53.8572 196.988 55.043L198.55 15.0735ZM289.769 113.71C291.817 61.2826 250.977 17.1217 198.55 15.0735L196.988 55.043C227.341 56.2288 250.985 81.7956 249.799 112.148L289.769 113.71ZM288.827 123.89C289.318 120.546 289.635 117.149 289.769 113.71L249.799 112.148C249.721 114.163 249.536 116.142 249.251 118.08L288.827 123.89ZM261.161 139.368C262.767 140.056 264.355 140.778 265.925 141.532L283.245 105.476C281.16 104.475 279.05 103.516 276.917 102.602L261.161 139.368ZM292.592 132.207C301.843 113.067 321.773 100.277 344.292 101.157L345.854 61.1874C306.871 59.6645 272.503 81.8522 256.578 114.801L292.592 132.207ZM344.292 101.157C374.645 102.343 398.289 127.91 397.103 158.262L437.073 159.824C439.121 107.396 398.281 63.2356 345.854 61.1874L344.292 101.157ZM397.103 158.262C396.057 185.061 375.981 206.668 350.39 210.508L356.324 250.065C400.558 243.429 435.262 206.173 437.073 159.824L397.103 158.262ZM333.562 233.144C333.729 234.302 333.88 235.467 334.014 236.636L373.754 232.08C373.575 230.523 373.375 228.972 373.152 227.429L333.562 233.144ZM358.5 253.818C383.751 247.829 410.489 260.49 421.39 285.064L457.953 268.844C439.101 226.344 392.915 204.545 349.268 214.898L358.5 253.818ZM421.39 285.064C433.707 312.83 421.183 345.324 393.416 357.641L409.636 394.205C457.596 372.93 479.229 316.804 457.953 268.844L421.39 285.064ZM393.416 357.641C369.524 368.24 342.084 360.445 327.069 340.333L295.016 364.262C320.956 399.008 368.305 412.54 409.636 394.205L393.416 357.641ZM297.251 337.813C296.435 338.59 295.608 339.356 294.77 340.111L321.542 369.831C322.653 368.829 323.75 367.813 324.833 366.782L297.251 337.813ZM337.925 365.141C334.125 356.576 329.195 348.821 323.376 341.996L292.936 367.946C296.282 371.871 299.14 376.354 301.361 381.361L337.925 365.141ZM289.608 490.503C337.568 469.227 359.2 413.101 337.925 365.141L301.361 381.361C313.679 409.127 301.155 441.622 273.388 453.939L289.608 490.503ZM164.247 442.185C185.522 490.145 241.648 511.778 289.608 490.503L273.388 453.939C245.622 466.256 213.128 453.732 200.811 425.966L164.247 442.185ZM158.392 382.837C154.061 402.057 155.655 422.816 164.247 442.185L200.811 425.966C195.821 414.718 194.908 402.752 197.414 391.63L158.392 382.837ZM182.769 367.834C181.562 367.531 180.363 367.211 179.171 366.873L168.257 405.355C169.841 405.804 171.434 406.23 173.037 406.632L182.769 367.834ZM155.115 378.76C149.987 391.727 140.004 402.716 126.272 408.807L142.492 445.371C166.193 434.857 183.485 415.794 192.313 393.468L155.115 378.76ZM126.272 408.807C98.5058 421.124 66.0117 408.6 53.6946 380.834L17.1307 397.054C38.4058 445.014 94.532 466.646 142.492 445.371L126.272 408.807ZM53.6946 380.834C41.3774 353.068 53.9014 320.573 81.6677 308.256L65.4478 271.692C17.4879 292.968 -4.14447 349.094 17.1307 397.054L53.6946 380.834ZM81.6677 308.256C82.2966 307.977 82.9272 307.711 83.5591 307.458L68.682 270.328C67.5994 270.761 66.5212 271.216 65.4478 271.692L81.6677 308.256ZM95.3608 283.433C94.8303 281.563 94.3439 279.675 93.9027 277.769L54.933 286.789C55.5221 289.334 56.1717 291.856 56.8803 294.353L95.3608 283.433ZM71.2926 302.208C72.2811 302.247 73.2673 302.27 74.251 302.279L74.5847 262.28C74.0103 262.275 73.4334 262.261 72.854 262.239L71.2926 302.208ZM-19.9265 203.572C-21.9747 255.999 18.8655 300.16 71.2926 302.208L72.8541 262.239C42.5015 261.053 18.8572 235.486 20.043 205.134L-19.9265 203.572ZM78.7096 112.353C26.2826 110.305 -17.8783 151.145 -19.9265 203.572L20.043 205.134C21.2288 174.781 46.7956 151.137 77.1481 152.323L78.7096 112.353ZM129.276 129.3C114.873 119.259 97.5083 113.088 78.7096 112.353L77.1481 152.323C88.079 152.75 98.0844 156.316 106.401 162.114L129.276 129.3ZM131.171 160.615C133.359 158.659 135.618 156.78 137.946 154.982L113.494 123.326C110.406 125.711 107.409 128.204 104.507 130.799L131.171 160.615ZM107.466 150.959C98.6046 145.844 88.4083 142.755 77.5385 142.33L75.977 182.3C80.2064 182.465 84.0948 183.654 87.4702 185.602L107.466 150.959ZM77.5385 142.33C41.6674 140.929 11.452 168.872 10.0506 204.743L50.0201 206.305C50.5591 192.508 62.1804 181.761 75.977 182.3L77.5385 142.33ZM10.0506 204.743C8.69508 239.442 34.7873 268.837 68.97 272.002L72.6575 232.172C59.5341 230.957 49.4991 219.642 50.0201 206.305L10.0506 204.743ZM90.8125 251.864C90.5139 225.092 99.0026 200.254 113.665 180.013L81.2716 156.547C61.7617 183.479 50.4172 216.646 50.815 252.31L90.8125 251.864ZM93.8321 335.679C94.1419 335.542 94.4518 335.412 94.7616 335.289L79.9811 298.119C79.1877 298.435 78.3982 298.767 77.6131 299.115L93.8321 335.679ZM81.1175 368.669C75.5188 356.048 81.2115 341.278 93.8325 335.679L77.6127 299.115C44.798 313.672 29.9969 352.074 44.5536 384.889L81.1175 368.669ZM114.107 381.384C101.486 386.983 86.7162 381.29 81.1175 368.669L44.5536 384.889C59.1103 417.704 97.5124 432.505 130.327 417.948L114.107 381.384ZM127.253 367.635C124.928 373.585 120.384 378.6 114.107 381.384L130.327 417.948C146.626 410.718 158.5 397.568 164.508 382.2L127.253 367.635ZM155.265 357.256C133.933 345.921 116.369 328.467 104.999 307.255L69.7441 326.153C84.8853 354.399 108.209 377.548 136.496 392.579L155.265 357.256ZM188.536 385.981C184.55 400.061 185.275 415.606 191.67 430.021L228.234 413.801C225.764 408.235 225.487 402.304 227.024 396.877L188.536 385.981ZM191.67 430.021C206.226 462.835 244.628 477.636 277.443 463.08L261.223 426.516C248.602 432.115 233.832 426.422 228.234 413.801L191.67 430.021ZM277.443 463.08C310.258 448.523 325.059 410.121 310.502 377.306L273.938 393.526C279.537 406.147 273.844 420.917 261.223 426.516L277.443 463.08ZM310.502 377.306C307.416 370.35 303.235 364.169 298.236 358.903L269.227 386.443C271.123 388.441 272.731 390.805 273.938 393.526L310.502 377.306ZM273.777 355.326C256.557 365.208 236.645 371.049 215.279 371.486L216.096 411.478C244.327 410.901 270.785 403.162 293.686 390.02L273.777 355.326ZM215.279 371.486C212.99 371.533 210.716 371.517 208.46 371.44L207.1 411.417C210.082 411.519 213.081 411.539 216.096 411.478L215.279 371.486ZM381.252 330.218C369.139 335.591 355.03 330.56 348.98 318.992L313.536 337.531C329.298 367.667 365.953 380.764 397.471 366.782L381.252 330.218ZM393.967 297.228C399.565 309.85 393.873 324.62 381.252 330.218L397.471 366.782C430.286 352.226 445.087 313.823 430.53 281.009L393.967 297.228ZM361.607 284.244C374.078 279.103 388.461 284.817 393.967 297.228L430.53 281.009C416.21 248.727 378.821 233.881 346.361 247.263L361.607 284.244ZM334.101 263.596C331.974 283.198 325.11 301.441 314.621 317.162L347.895 339.361C361.85 318.445 371.026 294.095 373.867 267.911L334.101 263.596ZM367.126 157.091C366.628 169.857 356.622 180.037 344.205 181.035L347.409 220.906C379.77 218.305 405.797 191.896 407.096 158.652L367.126 157.091ZM343.121 131.134C356.918 131.673 367.665 143.294 367.126 157.091L407.096 158.652C408.497 122.781 380.554 92.5659 344.683 91.1646L343.121 131.134ZM318.91 146.855C322.732 137.266 332.28 130.711 343.121 131.134L344.683 91.1646C316.382 90.059 291.651 107.21 281.753 132.046L318.91 146.855ZM288.052 155.237C305.539 168.84 319.178 187.06 327.096 208.034L364.518 193.906C353.942 165.894 335.781 141.688 312.611 123.664L288.052 155.237Z" fill="black" mask="url(#path-1-inside-1_3_210)"/>
<mask id="path-3-inside-2_3_210" fill="white">
<path fill-rule="evenodd" clip-rule="evenodd" d="M196.598 65.0354C221.432 66.0056 240.777 86.9239 239.807 111.758C239.803 111.853 239.799 111.949 239.795 112.044C230.141 110.201 220.147 109.332 209.923 109.541C189.114 109.966 169.441 114.816 151.797 123.167C150.359 118.462 149.673 113.439 149.876 108.244C150.846 83.4106 171.764 64.0652 196.598 65.0354ZM125.72 139.154C121.565 129.322 119.454 118.444 119.898 107.073C121.515 65.6835 156.379 33.4413 197.769 35.0583C239.159 36.6752 271.401 71.5391 269.784 112.929C269.678 115.656 269.427 118.344 269.039 120.985C270.909 121.786 272.758 122.626 274.585 123.504C287.173 97.4597 314.322 79.9708 345.073 81.1722C386.463 82.7892 418.705 117.653 417.088 159.043C415.659 195.617 388.27 225.049 353.357 230.286C353.552 231.637 353.728 232.995 353.884 234.358C388.333 226.187 424.795 243.417 439.671 276.954C456.468 314.817 439.389 359.127 401.526 375.923C368.914 390.39 331.52 379.727 311.042 352.297C310.093 353.201 309.13 354.093 308.156 354.971C312.738 360.346 316.633 366.465 319.643 373.251C336.439 411.114 319.361 455.425 281.498 472.221C243.635 489.017 199.325 471.939 182.529 434.076C175.738 418.767 174.484 402.405 177.903 387.233C176.498 386.881 175.102 386.508 173.714 386.114C166.736 403.761 153.098 418.786 134.382 427.089C96.5189 443.885 52.2088 426.807 35.4126 388.944C18.6164 351.081 35.6946 306.77 73.5578 289.974C74.4089 289.597 75.2633 289.236 76.1205 288.893C75.501 286.71 74.933 284.505 74.4178 282.279C73.6388 282.273 72.8572 282.254 72.0733 282.224C30.6835 280.607 -1.55871 245.743 0.0582553 204.353C1.67522 162.963 36.5391 130.721 77.9289 132.338C92.7936 132.919 106.479 137.788 117.839 145.707C120.384 143.431 123.012 141.245 125.72 139.154ZM97.4683 168.28C91.3497 164.749 84.3074 162.61 76.7578 162.315C51.9239 161.345 31.0056 180.69 30.0354 205.524C29.0971 229.542 47.1607 249.897 70.8138 252.087C70.4656 220.869 80.3821 191.866 97.4683 168.28ZM87.3714 316.704C86.8197 316.923 86.27 317.154 85.7226 317.397C63.0047 327.475 52.7578 354.061 62.8355 376.779C72.9132 399.497 99.4993 409.744 122.217 399.666C133.505 394.659 141.714 385.576 145.881 374.918C121.071 361.734 100.627 341.433 87.3714 316.704ZM207.78 391.429C205.019 401.182 205.52 411.92 209.952 421.911C220.029 444.629 246.615 454.875 269.333 444.798C292.051 434.72 302.298 408.134 292.22 385.416C290.074 380.578 287.179 376.305 283.731 372.673C263.671 384.185 240.486 390.975 215.687 391.482C213.035 391.536 210.399 391.518 207.78 391.429ZM331.258 328.262C342.164 349.113 367.546 358.177 389.361 348.5C412.079 338.423 422.326 311.836 412.249 289.119C402.336 266.772 376.449 256.492 353.984 265.754C351.5 288.647 343.48 309.943 331.258 328.262ZM345.807 200.97C368.196 199.171 386.212 180.876 387.111 157.872C388.081 133.038 368.736 112.12 343.902 111.149C324.331 110.385 307.192 122.238 300.331 139.451C320.66 155.264 336.56 176.477 345.807 200.97Z"/>
</mask>
<path d="M239.807 111.758L219.822 110.977L219.822 110.978L239.807 111.758ZM196.598 65.0354L195.817 85.0201L195.817 85.0201L196.598 65.0354ZM239.795 112.044L236.045 131.689L258.729 136.019L259.774 112.949L239.795 112.044ZM209.923 109.541L209.514 89.5451L209.923 109.541ZM151.797 123.167L132.672 129.016L139.439 151.143L160.353 141.244L151.797 123.167ZM149.876 108.244L169.86 109.025L169.86 109.025L149.876 108.244ZM119.898 107.073L139.883 107.854L139.883 107.854L119.898 107.073ZM125.72 139.154L137.946 154.982L150.14 145.563L144.143 131.369L125.72 139.154ZM197.769 35.0583L196.988 55.043L197.769 35.0583ZM269.784 112.929L289.769 113.71L289.769 113.71L269.784 112.929ZM269.039 120.985L249.251 118.08L247.016 133.306L261.161 139.368L269.039 120.985ZM274.585 123.504L265.925 141.532L283.91 150.171L292.592 132.207L274.585 123.504ZM345.073 81.1722L344.292 101.157L345.073 81.1722ZM417.088 159.043L397.103 158.262L397.103 158.262L417.088 159.043ZM353.357 230.286L350.39 210.508L330.72 213.458L333.562 233.144L353.357 230.286ZM353.884 234.358L334.014 236.636L336.58 259.017L358.5 253.818L353.884 234.358ZM439.671 276.954L421.39 285.064L421.39 285.064L439.671 276.954ZM401.526 375.923L409.636 394.205L409.636 394.205L401.526 375.923ZM311.042 352.297L327.069 340.333L313.581 322.265L297.251 337.813L311.042 352.297ZM308.156 354.971L294.77 340.111L280.31 353.136L292.936 367.946L308.156 354.971ZM319.643 373.251L337.925 365.141L337.925 365.141L319.643 373.251ZM281.498 472.221L289.608 490.503L289.608 490.503L281.498 472.221ZM182.529 434.076L200.811 425.966L200.811 425.966L182.529 434.076ZM177.903 387.233L197.414 391.63L201.706 372.584L182.769 367.834L177.903 387.233ZM173.714 386.114L179.171 366.873L161.767 361.937L155.115 378.76L173.714 386.114ZM134.382 427.089L142.492 445.371L142.492 445.371L134.382 427.089ZM35.4126 388.944L53.6946 380.834L53.6946 380.834L35.4126 388.944ZM73.5578 289.974L81.6677 308.256L81.6677 308.256L73.5578 289.974ZM76.1205 288.893L83.5591 307.458L100.278 300.759L95.3608 283.433L76.1205 288.893ZM74.4178 282.279L93.9027 277.769L90.3479 262.411L74.5847 262.28L74.4178 282.279ZM72.0733 282.224L71.2926 302.208L71.2926 302.208L72.0733 282.224ZM0.0582553 204.353L-19.9265 203.572L0.0582553 204.353ZM77.9289 132.338L77.1481 152.323L77.9289 132.338ZM117.839 145.707L106.401 162.114L119.379 171.161L131.171 160.615L117.839 145.707ZM97.4683 168.28L113.665 180.013L126.679 162.048L107.466 150.959L97.4683 168.28ZM76.7578 162.315L75.977 182.3L75.977 182.3L76.7578 162.315ZM30.0354 205.524L50.0201 206.305L50.0201 206.305L30.0354 205.524ZM70.8138 252.087L68.97 272.002L91.06 274.047L90.8125 251.864L70.8138 252.087ZM85.7226 317.397L77.6131 299.115L77.6127 299.115L85.7226 317.397ZM87.3714 316.704L104.999 307.255L96.5663 291.524L79.9811 298.119L87.3714 316.704ZM62.8355 376.779L81.1175 368.669L81.1175 368.669L62.8355 376.779ZM122.217 399.666L130.327 417.948L130.327 417.948L122.217 399.666ZM145.881 374.918L164.508 382.2L170.992 365.613L155.265 357.256L145.881 374.918ZM207.78 391.429L208.46 371.44L192.803 370.908L188.536 385.981L207.78 391.429ZM209.952 421.911L191.67 430.021L191.67 430.021L209.952 421.911ZM269.333 444.798L277.443 463.08L277.443 463.08L269.333 444.798ZM292.22 385.416L310.502 377.306L310.502 377.306L292.22 385.416ZM283.731 372.673L298.236 358.903L287.413 347.502L273.777 355.326L283.731 372.673ZM215.687 391.482L215.279 371.486L215.279 371.486L215.687 391.482ZM389.361 348.5L397.471 366.782L397.471 366.782L389.361 348.5ZM331.258 328.262L314.621 317.162L308.041 327.025L313.536 337.531L331.258 328.262ZM412.249 289.119L430.53 281.009L430.53 281.009L412.249 289.119ZM353.984 265.754L346.361 247.263L335.382 251.79L334.101 263.596L353.984 265.754ZM387.111 157.872L367.126 157.091L367.126 157.091L387.111 157.872ZM345.807 200.97L327.096 208.034L332.41 222.111L347.409 220.906L345.807 200.97ZM343.902 111.149L344.683 91.1646L344.683 91.1646L343.902 111.149ZM300.331 139.451L281.753 132.046L276.188 146.009L288.052 155.237L300.331 139.451ZM259.792 112.538C261.193 76.6673 233.25 46.452 197.379 45.0506L195.817 85.0201C209.614 85.5591 220.361 97.1804 219.822 110.977L259.792 112.538ZM259.774 112.949C259.781 112.813 259.786 112.676 259.792 112.537L219.822 110.978C219.82 111.031 219.818 111.084 219.815 111.139L259.774 112.949ZM210.332 129.537C219.153 129.356 227.754 130.107 236.045 131.689L243.545 92.3986C232.529 90.2959 221.141 89.3073 209.514 89.5451L210.332 129.537ZM160.353 141.244C175.494 134.078 192.395 129.903 210.332 129.537L209.514 89.5451C185.832 90.0293 163.388 95.5538 143.241 105.089L160.353 141.244ZM129.891 107.464C129.599 114.931 130.586 122.194 132.672 129.016L170.923 117.317C170.131 114.729 169.746 111.946 169.86 109.025L129.891 107.464ZM197.379 45.0506C161.508 43.6493 131.292 71.5925 129.891 107.464L169.86 109.025C170.399 95.2286 182.021 84.4812 195.817 85.0201L197.379 45.0506ZM99.9137 106.293C99.3525 120.659 102.023 134.457 107.297 146.938L144.143 131.369C141.108 124.187 139.556 116.229 139.883 107.854L99.9137 106.293ZM198.55 15.0735C146.123 13.0253 101.962 53.8655 99.9137 106.293L139.883 107.854C141.069 77.5015 166.636 53.8572 196.988 55.043L198.55 15.0735ZM289.769 113.71C291.817 61.2826 250.977 17.1217 198.55 15.0735L196.988 55.043C227.341 56.2288 250.985 81.7956 249.799 112.148L289.769 113.71ZM288.827 123.89C289.318 120.546 289.635 117.149 289.769 113.71L249.799 112.148C249.721 114.163 249.536 116.142 249.251 118.08L288.827 123.89ZM261.161 139.368C262.767 140.056 264.355 140.778 265.925 141.532L283.245 105.476C281.16 104.475 279.05 103.516 276.917 102.602L261.161 139.368ZM292.592 132.207C301.843 113.067 321.773 100.277 344.292 101.157L345.854 61.1874C306.871 59.6645 272.503 81.8522 256.578 114.801L292.592 132.207ZM344.292 101.157C374.645 102.343 398.289 127.91 397.103 158.262L437.073 159.824C439.121 107.396 398.281 63.2356 345.854 61.1874L344.292 101.157ZM397.103 158.262C396.057 185.061 375.981 206.668 350.39 210.508L356.324 250.065C400.558 243.429 435.262 206.173 437.073 159.824L397.103 158.262ZM333.562 233.144C333.729 234.302 333.88 235.467 334.014 236.636L373.754 232.08C373.575 230.523 373.375 228.972 373.152 227.429L333.562 233.144ZM358.5 253.818C383.751 247.829 410.489 260.49 421.39 285.064L457.953 268.844C439.101 226.344 392.915 204.545 349.268 214.898L358.5 253.818ZM421.39 285.064C433.707 312.83 421.183 345.324 393.416 357.641L409.636 394.205C457.596 372.93 479.229 316.804 457.953 268.844L421.39 285.064ZM393.416 357.641C369.524 368.24 342.084 360.445 327.069 340.333L295.016 364.262C320.956 399.008 368.305 412.54 409.636 394.205L393.416 357.641ZM297.251 337.813C296.435 338.59 295.608 339.356 294.77 340.111L321.542 369.831C322.653 368.829 323.75 367.813 324.833 366.782L297.251 337.813ZM337.925 365.141C334.125 356.576 329.195 348.821 323.376 341.996L292.936 367.946C296.282 371.871 299.14 376.354 301.361 381.361L337.925 365.141ZM289.608 490.503C337.568 469.227 359.2 413.101 337.925 365.141L301.361 381.361C313.679 409.127 301.155 441.622 273.388 453.939L289.608 490.503ZM164.247 442.185C185.522 490.145 241.648 511.778 289.608 490.503L273.388 453.939C245.622 466.256 213.128 453.732 200.811 425.966L164.247 442.185ZM158.392 382.837C154.061 402.057 155.655 422.816 164.247 442.185L200.811 425.966C195.821 414.718 194.908 402.752 197.414 391.63L158.392 382.837ZM182.769 367.834C181.562 367.531 180.363 367.211 179.171 366.873L168.257 405.355C169.841 405.804 171.434 406.23 173.037 406.632L182.769 367.834ZM155.115 378.76C149.987 391.727 140.004 402.716 126.272 408.807L142.492 445.371C166.193 434.857 183.485 415.794 192.313 393.468L155.115 378.76ZM126.272 408.807C98.5058 421.124 66.0117 408.6 53.6946 380.834L17.1307 397.054C38.4058 445.014 94.532 466.646 142.492 445.371L126.272 408.807ZM53.6946 380.834C41.3774 353.068 53.9014 320.573 81.6677 308.256L65.4478 271.692C17.4879 292.968 -4.14447 349.094 17.1307 397.054L53.6946 380.834ZM81.6677 308.256C82.2966 307.977 82.9272 307.711 83.5591 307.458L68.682 270.328C67.5994 270.761 66.5212 271.216 65.4478 271.692L81.6677 308.256ZM95.3608 283.433C94.8303 281.563 94.3439 279.675 93.9027 277.769L54.933 286.789C55.5221 289.334 56.1717 291.856 56.8803 294.353L95.3608 283.433ZM71.2926 302.208C72.2811 302.247 73.2673 302.27 74.251 302.279L74.5847 262.28C74.0103 262.275 73.4334 262.261 72.854 262.239L71.2926 302.208ZM-19.9265 203.572C-21.9747 255.999 18.8655 300.16 71.2926 302.208L72.8541 262.239C42.5015 261.053 18.8572 235.486 20.043 205.134L-19.9265 203.572ZM78.7096 112.353C26.2826 110.305 -17.8783 151.145 -19.9265 203.572L20.043 205.134C21.2288 174.781 46.7956 151.137 77.1481 152.323L78.7096 112.353ZM129.276 129.3C114.873 119.259 97.5083 113.088 78.7096 112.353L77.1481 152.323C88.079 152.75 98.0844 156.316 106.401 162.114L129.276 129.3ZM131.171 160.615C133.359 158.659 135.618 156.78 137.946 154.982L113.494 123.326C110.406 125.711 107.409 128.204 104.507 130.799L131.171 160.615ZM107.466 150.959C98.6046 145.844 88.4083 142.755 77.5385 142.33L75.977 182.3C80.2064 182.465 84.0948 183.654 87.4702 185.602L107.466 150.959ZM77.5385 142.33C41.6674 140.929 11.452 168.872 10.0506 204.743L50.0201 206.305C50.5591 192.508 62.1804 181.761 75.977 182.3L77.5385 142.33ZM10.0506 204.743C8.69508 239.442 34.7873 268.837 68.97 272.002L72.6575 232.172C59.5341 230.957 49.4991 219.642 50.0201 206.305L10.0506 204.743ZM90.8125 251.864C90.5139 225.092 99.0026 200.254 113.665 180.013L81.2716 156.547C61.7617 183.479 50.4172 216.646 50.815 252.31L90.8125 251.864ZM93.8321 335.679C94.1419 335.542 94.4518 335.412 94.7616 335.289L79.9811 298.119C79.1877 298.435 78.3982 298.767 77.6131 299.115L93.8321 335.679ZM81.1175 368.669C75.5188 356.048 81.2115 341.278 93.8325 335.679L77.6127 299.115C44.798 313.672 29.9969 352.074 44.5536 384.889L81.1175 368.669ZM114.107 381.384C101.486 386.983 86.7162 381.29 81.1175 368.669L44.5536 384.889C59.1103 417.704 97.5124 432.505 130.327 417.948L114.107 381.384ZM127.253 367.635C124.928 373.585 120.384 378.6 114.107 381.384L130.327 417.948C146.626 410.718 158.5 397.568 164.508 382.2L127.253 367.635ZM155.265 357.256C133.933 345.921 116.369 328.467 104.999 307.255L69.7441 326.153C84.8853 354.399 108.209 377.548 136.496 392.579L155.265 357.256ZM188.536 385.981C184.55 400.061 185.275 415.606 191.67 430.021L228.234 413.801C225.764 408.235 225.487 402.304 227.024 396.877L188.536 385.981ZM191.67 430.021C206.226 462.835 244.628 477.636 277.443 463.08L261.223 426.516C248.602 432.115 233.832 426.422 228.234 413.801L191.67 430.021ZM277.443 463.08C310.258 448.523 325.059 410.121 310.502 377.306L273.938 393.526C279.537 406.147 273.844 420.917 261.223 426.516L277.443 463.08ZM310.502 377.306C307.416 370.35 303.235 364.169 298.236 358.903L269.227 386.443C271.123 388.441 272.731 390.805 273.938 393.526L310.502 377.306ZM273.777 355.326C256.557 365.208 236.645 371.049 215.279 371.486L216.096 411.478C244.327 410.901 270.785 403.162 293.686 390.02L273.777 355.326ZM215.279 371.486C212.99 371.533 210.716 371.517 208.46 371.44L207.1 411.417C210.082 411.519 213.081 411.539 216.096 411.478L215.279 371.486ZM381.252 330.218C369.139 335.591 355.03 330.56 348.98 318.992L313.536 337.531C329.298 367.667 365.953 380.764 397.471 366.782L381.252 330.218ZM393.967 297.228C399.565 309.85 393.873 324.62 381.252 330.218L397.471 366.782C430.286 352.226 445.087 313.823 430.53 281.009L393.967 297.228ZM361.607 284.244C374.078 279.103 388.461 284.817 393.967 297.228L430.53 281.009C416.21 248.727 378.821 233.881 346.361 247.263L361.607 284.244ZM334.101 263.596C331.974 283.198 325.11 301.441 314.621 317.162L347.895 339.361C361.85 318.445 371.026 294.095 373.867 267.911L334.101 263.596ZM367.126 157.091C366.628 169.857 356.622 180.037 344.205 181.035L347.409 220.906C379.77 218.305 405.797 191.896 407.096 158.652L367.126 157.091ZM343.121 131.134C356.918 131.673 367.665 143.294 367.126 157.091L407.096 158.652C408.497 122.781 380.554 92.5659 344.683 91.1646L343.121 131.134ZM318.91 146.855C322.732 137.266 332.28 130.711 343.121 131.134L344.683 91.1646C316.382 90.059 291.651 107.21 281.753 132.046L318.91 146.855ZM288.052 155.237C305.539 168.84 319.178 187.06 327.096 208.034L364.518 193.906C353.942 165.894 335.781 141.688 312.611 123.664L288.052 155.237Z" fill="black" mask="url(#path-3-inside-2_3_210)"/>
<path d="M180.595 210.122L216.161 232.301L216.473 232.496L216.746 232.245L245.999 205.308L238.772 246.021L238.711 246.363L239 246.544L274.629 268.762L234.598 271.665L234.215 271.692L234.146 272.081L226.94 312.676L209.38 273.819L209.238 273.504L208.9 273.528L168.753 276.44L198.005 249.503L198.278 249.252L198.124 248.911L180.595 210.122Z" fill="black" stroke="black"/>
<path d="M181.662 158.525L196.991 157.39L197.355 157.363L197.433 157.004L200.636 142.343L206.945 156.317L207.092 156.641L207.442 156.615L222.808 155.477L211.357 165.215L211.072 165.457L211.228 165.803L217.513 179.721L204.124 171.806L203.819 171.625L203.552 171.852L192.054 181.629L195.257 166.968L195.335 166.61L195.018 166.422L181.662 158.525Z" fill="black" stroke="black"/>
<path d="M108.012 228.063L123.035 224.78L123.392 224.702L123.421 224.336L124.606 209.358L132.742 222.316L132.931 222.617L133.276 222.542L148.332 219.251L138.314 230.514L138.066 230.793L138.266 231.113L146.373 244.022L132.048 238.063L131.72 237.926L131.486 238.189L121.431 249.494L122.616 234.516L122.644 234.151L122.305 234.009L108.012 228.063Z" fill="black" stroke="black"/>
<path d="M560.2 387V107H625V387H560.2ZM827.45 391.8C805.317 391.8 784.783 388.2 765.85 381C747.183 373.8 730.917 363.667 717.05 350.6C703.45 337.533 692.783 322.2 685.05 304.6C677.583 287 673.85 267.8 673.85 247C673.85 226.2 677.583 207 685.05 189.4C692.783 171.8 703.583 156.467 717.45 143.4C731.317 130.333 747.583 120.2 766.25 113C784.917 105.8 805.183 102.2 827.05 102.2C849.183 102.2 869.45 105.8 887.85 113C906.517 120.2 922.65 130.333 936.25 143.4C950.117 156.467 960.917 171.8 968.65 189.4C976.383 206.733 980.25 225.933 980.25 247C980.25 267.8 976.383 287.133 968.65 305C960.917 322.6 950.117 337.933 936.25 351C922.65 363.8 906.517 373.8 887.85 381C869.45 388.2 849.317 391.8 827.45 391.8ZM827.05 336.6C839.583 336.6 851.05 334.467 861.45 330.2C872.117 325.933 881.45 319.8 889.45 311.8C897.45 303.8 903.583 294.333 907.85 283.4C912.383 272.467 914.65 260.333 914.65 247C914.65 233.667 912.383 221.533 907.85 210.6C903.583 199.667 897.45 190.2 889.45 182.2C881.717 174.2 872.517 168.067 861.85 163.8C851.183 159.533 839.583 157.4 827.05 157.4C814.517 157.4 802.917 159.533 792.25 163.8C781.85 168.067 772.65 174.2 764.65 182.2C756.65 190.2 750.383 199.667 745.85 210.6C741.583 221.533 739.45 233.667 739.45 247C739.45 260.067 741.583 272.2 745.85 283.4C750.383 294.333 756.517 303.8 764.25 311.8C772.25 319.8 781.583 325.933 792.25 330.2C802.917 334.467 814.517 336.6 827.05 336.6ZM1028.95 387V107H1082.55L1247.75 308.6H1221.75V107H1285.75V387H1232.55L1066.95 185.4H1092.95V387H1028.95ZM1411.6 219.8H1546.4V270.2H1411.6V219.8ZM1416.4 335H1568.8V387H1352V107H1563.6V159H1416.4V335ZM1683.65 387L1592.05 107H1659.25L1738.85 355H1705.25L1788.45 107H1848.45L1928.45 355H1896.05L1977.65 107H2039.65L1948.05 387H1878.45L1807.65 169.4H1826.05L1753.25 387H1683.65ZM2208.7 391.8C2186.57 391.8 2166.03 388.2 2147.1 381C2128.43 373.8 2112.17 363.667 2098.3 350.6C2084.7 337.533 2074.03 322.2 2066.3 304.6C2058.83 287 2055.1 267.8 2055.1 247C2055.1 226.2 2058.83 207 2066.3 189.4C2074.03 171.8 2084.83 156.467 2098.7 143.4C2112.57 130.333 2128.83 120.2 2147.5 113C2166.17 105.8 2186.43 102.2 2208.3 102.2C2230.43 102.2 2250.7 105.8 2269.1 113C2287.77 120.2 2303.9 130.333 2317.5 143.4C2331.37 156.467 2342.17 171.8 2349.9 189.4C2357.63 206.733 2361.5 225.933 2361.5 247C2361.5 267.8 2357.63 287.133 2349.9 305C2342.17 322.6 2331.37 337.933 2317.5 351C2303.9 363.8 2287.77 373.8 2269.1 381C2250.7 388.2 2230.57 391.8 2208.7 391.8ZM2208.3 336.6C2220.83 336.6 2232.3 334.467 2242.7 330.2C2253.37 325.933 2262.7 319.8 2270.7 311.8C2278.7 303.8 2284.83 294.333 2289.1 283.4C2293.63 272.467 2295.9 260.333 2295.9 247C2295.9 233.667 2293.63 221.533 2289.1 210.6C2284.83 199.667 2278.7 190.2 2270.7 182.2C2262.97 174.2 2253.77 168.067 2243.1 163.8C2232.43 159.533 2220.83 157.4 2208.3 157.4C2195.77 157.4 2184.17 159.533 2173.5 163.8C2163.1 168.067 2153.9 174.2 2145.9 182.2C2137.9 190.2 2131.63 199.667 2127.1 210.6C2122.83 221.533 2120.7 233.667 2120.7 247C2120.7 260.067 2122.83 272.2 2127.1 283.4C2131.63 294.333 2137.77 303.8 2145.5 311.8C2153.5 319.8 2162.83 325.933 2173.5 330.2C2184.17 334.467 2195.77 336.6 2208.3 336.6ZM2410.2 387V107H2531.4C2556.47 107 2578.07 111.133 2596.2 119.4C2614.33 127.4 2628.33 139 2638.2 154.2C2648.07 169.4 2653 187.533 2653 208.6C2653 229.4 2648.07 247.4 2638.2 262.6C2628.33 277.533 2614.33 289 2596.2 297C2578.07 305 2556.47 309 2531.4 309H2446.2L2475 280.6V387H2410.2ZM2588.2 387L2518.2 285.4H2587.4L2658.2 387H2588.2ZM2475 287.8L2446.2 257.4H2527.8C2547.8 257.4 2562.73 253.133 2572.6 244.6C2582.47 235.8 2587.4 223.8 2587.4 208.6C2587.4 193.133 2582.47 181.133 2572.6 172.6C2562.73 164.067 2547.8 159.8 2527.8 159.8H2446.2L2475 129V287.8ZM2762.34 323L2758.74 248.2L2892.74 107H2964.74L2843.94 237L2807.94 275.4L2762.34 323ZM2704.34 387V107H2768.74V387H2704.34ZM2895.94 387L2796.34 265L2838.74 219L2971.54 387H2895.94ZM3086.58 391.8C3064.18 391.8 3042.71 388.867 3022.18 383C3001.64 376.867 2985.11 369 2972.58 359.4L2994.58 310.6C3006.58 319.133 3020.71 326.2 3036.98 331.8C3053.51 337.133 3070.18 339.8 3086.98 339.8C3099.78 339.8 3110.04 338.6 3117.78 336.2C3125.78 333.533 3131.64 329.933 3135.38 325.4C3139.11 320.867 3140.98 315.667 3140.98 309.8C3140.98 302.333 3138.04 296.467 3132.18 292.2C3126.31 287.667 3118.58 284.067 3108.98 281.4C3099.38 278.467 3088.71 275.8 3076.98 273.4C3065.51 270.733 3053.91 267.533 3042.18 263.8C3030.71 260.067 3020.18 255.267 3010.58 249.4C3000.98 243.533 2993.11 235.8 2986.98 226.2C2981.11 216.6 2978.18 204.333 2978.18 189.4C2978.18 173.4 2982.44 158.867 2990.98 145.8C2999.78 132.467 3012.84 121.933 3030.18 114.2C3047.78 106.2 3069.78 102.2 3096.18 102.2C3113.78 102.2 3131.11 104.333 3148.18 108.6C3165.24 112.6 3180.31 118.733 3193.38 127L3173.38 176.2C3160.31 168.733 3147.24 163.267 3134.18 159.8C3121.11 156.067 3108.31 154.2 3095.78 154.2C3083.24 154.2 3072.98 155.667 3064.98 158.6C3056.98 161.533 3051.24 165.4 3047.78 170.2C3044.31 174.733 3042.58 180.067 3042.58 186.2C3042.58 193.4 3045.51 199.267 3051.38 203.8C3057.24 208.067 3064.98 211.533 3074.58 214.2C3084.18 216.867 3094.71 219.533 3106.18 222.2C3117.91 224.867 3129.51 227.933 3140.98 231.4C3152.71 234.867 3163.38 239.533 3172.98 245.4C3182.58 251.267 3190.31 259 3196.18 268.6C3202.31 278.2 3205.38 290.333 3205.38 305C3205.38 320.733 3200.98 335.133 3192.18 348.2C3183.38 361.267 3170.18 371.8 3152.58 379.8C3135.24 387.8 3113.24 391.8 3086.58 391.8Z" fill="black"/>
</svg>
